<svg width="24" height="24" viewBox="0 0 24 24" fill="none" xmlns="http://www.w3.org/2000/svg">
<path d="M16.4238 12.4238L8.92383 19.9238C8.71248 20.1352 8.42584 20.2539 8.12695 20.2539C7.82807 20.2539 7.54142 20.1352 7.33008 19.9238C7.11873 19.7125 7 19.4258 7 19.127C7 18.8281 7.11873 18.5414 7.33008 18.3301L14.0341 11.6279L7.33195 4.92383C7.2273 4.81918 7.14429 4.69495 7.08766 4.55822C7.03102 4.42149 7.00187 4.27494 7.00187 4.12695C7.00187 3.97896 7.03102 3.83241 7.08766 3.69569C7.14429 3.55896 7.2273 3.43472 7.33195 3.33008C7.4366 3.22543 7.56083 3.14242 7.69756 3.08578C7.83429 3.02915 7.98083 3 8.12883 3C8.27682 3 8.42336 3.02915 8.56009 3.08578C8.69682 3.14242 8.82105 3.22543 8.9257 3.33008L16.4257 10.8301C16.5305 10.9347 16.6135 11.059 16.6701 11.1958C16.7268 11.3326 16.7558 11.4793 16.7557 11.6273C16.7555 11.7754 16.7261 11.922 16.6691 12.0587C16.6122 12.1953 16.5288 12.3194 16.4238 12.4238Z" fill="#E8F3FF"/>
</svg>
