<svg width="24" height="24" viewBox="0 0 24 24" fill="none" xmlns="http://www.w3.org/2000/svg">
<g clip-path="url(#clip0_7187_37790)">
<path d="M23.125 17.7527H22.75V9.37798C22.7504 9.06881 22.6744 8.76434 22.5286 8.49167C22.3829 8.219 22.172 7.98661 21.9147 7.81517L13.6647 2.31579C13.357 2.10991 12.9952 2 12.625 2C12.2548 2 11.893 2.10991 11.5853 2.31579L3.33531 7.81517C3.07802 7.98661 2.86712 8.219 2.72138 8.49167C2.57564 8.76434 2.49959 9.06881 2.5 9.37798V17.7527H2.125C1.82663 17.7527 1.54048 17.8712 1.3295 18.0822C1.11853 18.2932 1 18.5793 1 18.8777C1 19.176 1.11853 19.4622 1.3295 19.6732C1.54048 19.8841 1.82663 20.0027 2.125 20.0027H23.125C23.4234 20.0027 23.7095 19.8841 23.9205 19.6732C24.1315 19.4622 24.25 19.176 24.25 18.8777C24.25 18.5793 24.1315 18.2932 23.9205 18.0822C23.7095 17.8712 23.4234 17.7527 23.125 17.7527ZM4.75 9.57861L12.625 4.32861L20.5 9.57861V17.7527H19V11.3777C19 11.0793 18.8815 10.7932 18.6705 10.5822C18.4595 10.3712 18.1734 10.2527 17.875 10.2527H7.375C7.07663 10.2527 6.79048 10.3712 6.5795 10.5822C6.36853 10.7932 6.25 11.0793 6.25 11.3777V17.7527H4.75V9.57861ZM16.75 12.5027V14.0027H13.75V12.5027H16.75ZM11.5 14.0027H8.5V12.5027H11.5V14.0027ZM8.5 16.2527H11.5V17.7527H8.5V16.2527ZM13.75 16.2527H16.75V17.7527H13.75V16.2527Z" fill="#E8F3FF"/>
</g>
<defs>
<clipPath id="clip0_7187_37790">
<rect width="24" height="24" fill="white"/>
</clipPath>
</defs>
</svg>
