<svg width="24" height="24" viewBox="0 0 24 24" fill="none" xmlns="http://www.w3.org/2000/svg">
<path d="M22.1159 19.8153C20.8306 17.5594 18.8235 15.8017 16.4178 14.825C17.6141 13.9278 18.4978 12.6768 18.9437 11.2494C19.3896 9.82205 19.3751 8.29055 18.9022 6.87188C18.4293 5.4532 17.522 4.21928 16.3089 3.3449C15.0957 2.47052 13.6382 2 12.1428 2C10.6474 2 9.18988 2.47052 7.97674 3.3449C6.7636 4.21928 5.85633 5.4532 5.38343 6.87188C4.91054 8.29055 4.89601 9.82205 5.34189 11.2494C5.78778 12.6768 6.67147 13.9278 7.8678 14.825C5.46211 15.8017 3.45503 17.5594 2.16968 19.8153C2.09003 19.9434 2.03695 20.0861 2.01358 20.2351C1.99022 20.3841 1.99705 20.5363 2.03367 20.6826C2.07028 20.8289 2.13594 20.9663 2.22674 21.0868C2.31754 21.2072 2.43162 21.3081 2.5622 21.3835C2.69279 21.459 2.83721 21.5074 2.98688 21.5259C3.13655 21.5444 3.28841 21.5327 3.43345 21.4913C3.57848 21.45 3.71372 21.3799 3.83112 21.2852C3.94853 21.1906 4.0457 21.0733 4.11687 20.9403C5.81562 18.0041 8.81562 16.2528 12.1428 16.2528C15.47 16.2528 18.47 18.005 20.1687 20.9403C20.323 21.1883 20.5676 21.3666 20.8509 21.4375C21.1342 21.5084 21.434 21.4664 21.6869 21.3203C21.9397 21.1742 22.1259 20.9355 22.206 20.6546C22.286 20.3738 22.2537 20.0728 22.1159 19.8153ZM7.2678 9.12781C7.2678 8.16363 7.55372 7.2211 8.08939 6.41941C8.62506 5.61772 9.38643 4.99288 10.2772 4.6239C11.168 4.25492 12.1482 4.15838 13.0939 4.34648C14.0395 4.53459 14.9082 4.99889 15.5899 5.68067C16.2717 6.36245 16.736 7.23109 16.9241 8.17675C17.1122 9.1224 17.0157 10.1026 16.6467 10.9934C16.2777 11.8842 15.6529 12.6456 14.8512 13.1812C14.0495 13.7169 13.107 14.0028 12.1428 14.0028C10.8503 14.0013 9.61122 13.4872 8.6973 12.5733C7.78338 11.6594 7.26929 10.4203 7.2678 9.12781Z" fill="#E8F3FF"/>
</svg>
